<?xml version="1.0" encoding="UTF-8" standalone="no"?>
<svg
   xmlns:dc="http://purl.org/dc/elements/1.1/"
   xmlns:cc="http://creativecommons.org/ns#"
   xmlns:rdf="http://www.w3.org/1999/02/22-rdf-syntax-ns#"
   xmlns:svg="http://www.w3.org/2000/svg"
   xmlns="http://www.w3.org/2000/svg"
   xmlns:sodipodi="http://sodipodi.sourceforge.net/DTD/sodipodi-0.dtd"
   xmlns:inkscape="http://www.inkscape.org/namespaces/inkscape"
   width="2500"
   height="2500"
   viewBox="0 0 192.756 192.756"
   version="1.1"
   id="svg16"
   sodipodi:docname="irs.svg"
   inkscape:version="0.92.4 (5da689c313, 2019-01-14)"
   inkscape:export-filename="C:\Users\shou0\Downloads\irs.png"
   inkscape:export-xdpi="96"
   inkscape:export-ydpi="96">
  <metadata
     id="metadata22">
    <rdf:RDF>
      <cc:Work
         rdf:about="">
        <dc:format>image/svg+xml</dc:format>
        <dc:type
           rdf:resource="http://purl.org/dc/dcmitype/StillImage" />
      </cc:Work>
    </rdf:RDF>
  </metadata>
  <defs
     id="defs20" />
  <sodipodi:namedview
     pagecolor="#ffffff"
     bordercolor="#666666"
     borderopacity="1"
     objecttolerance="10"
     gridtolerance="10"
     guidetolerance="10"
     inkscape:pageopacity="0"
     inkscape:pageshadow="2"
     inkscape:window-width="1600"
     inkscape:window-height="1201"
     id="namedview18"
     showgrid="false"
     inkscape:zoom="0.26700352"
     inkscape:cx="535.57723"
     inkscape:cy="1220.06"
     inkscape:window-x="-9"
     inkscape:window-y="-9"
     inkscape:window-maximized="1"
     inkscape:current-layer="svg16" />
  <path
     d="M79.83 93.22c3.265-.158 5.442-.631 6.375-1.421.933-.79 1.399-2.685 1.399-5.843V49.634c0-3-.467-5.053-1.399-5.843-.934-.79-3.11-1.422-6.375-1.58V40.79h23.791v1.421c-3.266.158-5.287.79-6.375 1.58-.934.79-1.4 2.842-1.4 5.843v36.321c0 3.158.466 5.054 1.4 5.843 1.088.79 3.109 1.263 6.375 1.421v1.579H79.83V93.22zM105.799 93.22c3.109-.316 4.975-.947 5.752-1.737.777-.948 1.244-3.159 1.244-6.633V49.634c0-3-.467-4.737-1.398-5.686-.777-.947-2.645-1.421-5.598-1.737V40.79h22.234c4.666 0 8.553.474 11.662 1.737 5.754 2.211 8.709 6.475 8.709 12.476 0 4.106-1.244 7.106-3.889 9.317-2.643 2.211-6.062 3.632-10.572 4.422l16.482 20.687c1.088 1.264 2.176 2.053 3.109 2.685 1.088.631 2.332.947 3.887 1.105v1.579h-12.906L125.391 69.69l-4.51.158v16.108c0 3 .467 4.896 1.4 5.685.932.79 2.799 1.421 5.908 1.579v1.579h-22.391V93.22h.001zm27.521-28.267c-2.488.947-6.686 1.579-12.439 1.895V46.634c0-1.263.311-1.895.777-2.21.467-.475 1.865-.632 4.199-.632 3.42 0 6.064.474 8.086 1.421 3.887 1.737 5.752 5.054 5.752 9.633 0 5.053-2.175 8.369-6.375 10.107z"
     fill-rule="evenodd"
     clip-rule="evenodd"
     id="path6"
     style="fill:#90989c;fill-opacity:1" />
  <path
     d="M155.713 78.375a29.92 29.92 0 0 0 4.664 8.686c3.266 3.79 7.152 5.685 11.973 5.685 2.488 0 4.82-.79 6.531-2.369 2.021-1.737 2.955-3.948 2.955-6.949 0-2.685-.934-5.053-2.955-6.948-1.088-1.263-3.732-3.158-7.775-5.685l-6.842-4.264c-2.021-1.421-3.73-2.685-4.82-4.106-2.332-2.526-3.42-5.369-3.42-8.527 0-4.106 1.244-7.422 4.043-10.265 2.643-2.685 6.219-4.105 10.729-4.105 1.711 0 3.889.474 6.531 1.421s4.043 1.421 4.354 1.421c1.088 0 1.711-.315 2.178-.789.311-.474.621-1.105.777-2.053h1.711l1.709 17.371h-1.865c-1.244-5.211-3.422-8.843-6.375-10.896-2.799-2.054-5.754-3.159-8.553-3.159-2.178 0-4.043.631-5.754 2.053-1.555 1.263-2.332 3.158-2.332 5.369s.623 3.948 1.865 5.369c1.244 1.579 3.111 3.158 5.754 4.896l7.152 4.264c4.355 2.843 7.465 5.369 9.33 7.738 1.711 2.369 2.645 5.053 2.645 8.211 0 4.264-1.555 7.896-4.82 10.739-3.111 2.842-7.154 4.264-12.129 4.264-2.488 0-5.131-.474-7.775-1.421-2.799-.947-4.354-1.421-4.664-1.421-.934 0-1.555.316-1.867.948-.311.474-.621 1.105-.621 1.895h-1.867l-2.332-17.371h1.865v-.002zM46.865 38.106c11.507 2.369 19.437 6.159 20.214 7.422.933 1.579 1.399 3.474 2.333 10.738.311 3 .933 10.739.622 17.056-.156 6.159-.467 12.949-1.244 14.844-.311.632-2.954 3.316-4.665 3.79-.156.316 1.399-6.159 1.866-17.845.467-11.212-.466-18.477-.933-21.635-.311-2.053-.933-3.475-1.399-4.738-.622-.948-9.796-4.422-15.239-5.527-1.555 1.895-1.866 2.527-2.177 3.159-.311.947 4.354 6.317 4.665 6.791.622-1.737-.622-5.843-1.244-6.317.777-.315 3.577-.632 4.043 0 0 .158 1.088.79 1.555 6.159 3.266-.158 2.955.789 3.577 1.263.311-1.263.622-3.317-.466-4.422 3.109-.158 3.731-.158 4.354 1.105.312.79.622 3.317-.777 7.106 3.577 1.896 2.954 1.896 2.954 6.633 0 3.158-.155 7.106-.777 10.896-.467 2.843-.778 5.527-1.244 8.37-1.244 6.475-2.955 10.739-3.11 11.054-.155.316-2.021.948-4.354 1.737 0-1.421 1.555-5.211 3.11-14.055.777-4.896 1.71-9.633 1.71-11.844.622-7.422.778-7.738.311-11.686-.155-.948-.777-1.264-1.71-1.58 0 0-.466 1.896-.933 2.843-.311.947-1.088 2.211-1.088 2.211 1.399.631 2.332 1.737 2.332 2.685 0 4.105-2.021 14.528-3.266 18.634-.933 2.843-1.866 5.369-2.177 5.843-.311.158-1.555.631-3.732 1.105.466-2.842 2.488-7.422 4.976-22.582.466-3 1.244-5.843-.933-6.633-.156 2.685-2.799 13.739-4.509 17.529-.312-.158-3.266-1.264-3.421-1.421-.155-.158-3.732-12.792-5.598-22.109-1.866-.158-6.064-.79-6.375.948h3.266a3.64 3.64 0 0 0-1.088 1.105c1.244.158 2.021 1.895 2.644 4.264l-4.199.158c.312 0 .622.315.777 1.105V75.53h8.397l7.153 19.582c-3.266 1.737-6.842 2.842-9.019 2.842s-7.62-2.842-8.241-2.842c-.778 0-6.22 2.842-8.397 2.842-2.177 0-5.753-1.264-9.019-2.842l7.153-19.582h8.397V61.636c-.155-.316-.155-.474-.622-.632-.933 0-3.732-.158-4.198.947-.622-1.421-1.555-4.264-.778-5.685.312-.631 1.866-1.579 5.132-1.579.777-3.632 5.598-3.316 12.595-2.684 0 0-.156.315 0 .947 1.244 6.633 4.042 16.897 4.042 17.055 1.088-4.895 2.644-10.264 1.71-12.475-.466-1.264-1.399-2.053-4.509-6.159-1.71-2.211-3.421-4.422-3.265-5.211.153-.789.153-2.843 4.818-8.054z"
     fill-rule="evenodd"
     clip-rule="evenodd"
     id="path8"
     style="fill:#8e8b7c;fill-opacity:1" />
  <path
     d="M30.849 38.738c3.732-1.421 7.619-1.264 8.708-1.264-.777 2.369-3.887 6.949-7.153 8.528-1.71.947-5.287 1.579-7.464 2.21-2.488.79-6.531 2.053-9.485 4.422-2.021 1.579-2.954 3.79-2.799 6.949 1.866-2.053 5.753-4.422 8.863-5.527-.777 2.842-.622 5.211-1.71 7.896-.622 1.737-5.287 5.686-6.53 7.896-.934 1.421-1.556 3.948-1.089 6.159 0 0 1.089-1.579 2.021-2.526 1.866-2.053 5.753-4.737 5.753-4.737 0 1.421-.622 7.738-1.244 10.265-.622 2.211-4.509 6.159-5.598 7.422 0 0 1.088 3 1.71 4.896.622 1.737.933 3 .933 3-1.399-.474-7.62-3.158-9.485-5.053-2.333-2.369-2.488-4.896-2.799-7.58-.156-.948-.778-6.317-.623-7.422.156 0 3.421 2.369 4.976 4.264a42.546 42.546 0 0 1 3.266 4.105 25.888 25.888 0 0 0-.467-2.211c-.155-1.737.933-3 .778-3.316l-.622-1.264c-.933-2.053-5.442-5.211-6.687-7.264-.466-.79-1.71-2.842-.933-12.476 0 0 3.576 3.79 5.442 6.159 1.244 1.58 2.488 4.106 2.488 4.106-.467-3.474.933-5.211.777-5.211 0 0-.156-1.264-.777-2.211-1.71-3.001-5.598-4.58-6.22-8.212-.467-2.685.777-4.896 6.997-7.422 1.244 4.264.466 8.054.311 11.528 3.11-2.527 2.644-9.159 4.198-11.528.467-.948 1.244-1.895 3.421-2.842 2.177-.79 3.421-1.421 5.442-1.737 0 .316-1.088 4.264-2.021 6.317-1.088 2.369-2.643 3.316-2.643 3.474 2.333-.632 4.198-1.737 5.753-4.105.623-.79 1.244-1.737 1.866-2.685.624-1.108 1.246-2.371 2.646-3.003z"
     fill-rule="evenodd"
     clip-rule="evenodd"
     id="path10"
     style="fill:#8e8b7c;fill-opacity:1" />
  <path
     d="M53.707 52.319c2.177-.315 1.244 3.79.622 5.369-.933-1.895-1.555-3.158-2.955-4.896.778-.315 1.399-.315 2.333-.473zM31.16 57.056c2.488-.158 4.665-.158 4.82 2.053h-6.22c-.467-1.579 0-1.895 1.4-2.053zM25.406 81.218l3.887 12.317s-2.332.316-3.887.316c-1.71 0-4.199-.316-4.199-.316l4.199-12.317zM42.044 81.218l4.198 12.317s-2.488.316-4.198.316c-1.399 0-3.888-.316-3.888-.316l3.888-12.317zM31.937 79.323v3.316s0 .316.155.316c.467.316.622.316.622.316l2.799.79v-4.738h3.577l-5.442 15.318-5.287-15.318h3.576z"
     fill-rule="evenodd"
     clip-rule="evenodd"
     fill="#fff"
     id="path12"
     style="fill:#8e8b7c;fill-opacity:1" />
  <path
     inkscape:connector-curvature="0"
     d="m 105.799,93.22 c 3.109,-0.316 4.975,-0.947 5.752,-1.737 0.777,-0.948 1.244,-3.159 1.244,-6.633 V 49.633998 c 0,-2.999999 -0.467,-4.737 -1.398,-5.686 -0.777,-0.947 -2.645,-1.421 -5.598,-1.737 v -1.421 h 22.234 c 4.666,0 8.553,0.474 11.662,1.737 5.754,2.211 8.709,6.475001 8.709,12.476002 0,4.106 -1.244,7.106 -3.889,9.317 -2.643,2.211 -6.062,3.632 -10.572,4.422 l 16.482,20.687 c 1.088,1.264 2.176,2.053 3.109,2.685 1.088,0.631 2.332,0.947 3.887,1.105 v 1.579 h -12.906 l -19.124,-25.108 -4.51,0.158 v 16.108 c 0,3 0.467,4.896 1.4,5.685 0.932,0.79 2.799,1.421 5.908,1.579 v 1.579 H 105.798 V 93.22 Z M 133.32,64.953 c -2.488,0.947 -6.686,1.579 -12.439,1.895 V 46.633999 c 0,-1.263001 0.311,-1.895001 0.777,-2.210001 0.467,-0.474999 1.865,-0.631999 4.199,-0.631999 3.42,0 6.064,0.473999 8.086,1.421 3.887,1.736999 5.752,5.053999 5.752,9.633001 0,5.053 -2.175,8.369 -6.375,10.107 z"
     id="path6-5"
     style="clip-rule:evenodd;fill:#a38639;fill-opacity:1;fill-rule:evenodd;stroke-width:1"
     sodipodi:nodetypes="ccsscccscscccccccccsccccccccscscsc" />
  <path
     inkscape:connector-curvature="0"
     style="clip-rule:evenodd;fill-rule:evenodd;stroke-width:1;fill:#69afab;fill-opacity:1"
     d="m 155.713,78.375 c 1.06367,3.13332 2.63972,6.06849 4.664,8.686 3.266,3.79 7.152,5.685 11.973,5.685 2.488,0 4.82,-0.79 6.531,-2.369 2.021,-1.737 2.955,-3.948 2.955,-6.949 0,-2.685 -0.934,-5.053 -2.955,-6.948 -1.088,-1.263 -3.732,-3.158 -7.775,-5.685 l -6.842,-4.264 c -2.021,-1.421 -3.73,-2.685 -4.82,-4.106 -2.332,-2.52599 -3.42,-5.36899 -3.42,-8.52699 0,-4.106 1.244,-7.422 4.043,-10.265 2.643,-2.685 6.219,-4.105 10.729,-4.105 1.711,0 3.88901,0.474 6.531,1.421 2.642,0.947 4.043,1.421 4.354,1.421 1.088,0 1.711,-0.315 2.178,-0.789 0.311,-0.474 0.621,-1.105 0.777,-2.053 h 1.71101 l 1.70899,17.371 h -1.865 c -1.244,-5.211 -3.422,-8.843 -6.375,-10.896 -2.799,-2.054 -5.754,-3.159 -8.553,-3.159 -2.178,0 -4.043,0.631 -5.754,2.053 -1.555,1.263 -2.332,3.158 -2.332,5.369 0,2.211 0.623,3.948 1.865,5.369 1.244,1.579 3.111,3.158 5.754,4.896 l 7.152,4.26399 c 4.355,2.843 7.465,5.369 9.33,7.738 1.711,2.369 2.645,5.053 2.645,8.211 0,4.264 -1.555,7.896 -4.82,10.739 -3.111,2.842 -7.154,4.264 -12.129,4.264 -2.488,0 -5.131,-0.474 -7.775,-1.421 -2.799,-0.947 -4.354,-1.421 -4.664,-1.421 -0.934,0 -1.555,0.316 -1.867,0.948 -0.311,0.474 -0.621,1.105 -0.621,1.895 h -1.867 l -2.332,-17.371 h 1.865 z"
     id="path8-0"
     sodipodi:nodetypes="ccscsccccscscsccccccscsccccscscscccccc" />
</svg>
